# AST/ASF file generated using VICON BodyLanguage
# -----------------------------------------------
:version 1.10
:name VICON
:units
  mass 1.0
  length 0.45
  angle deg
:documentation
   .ast/.asf automatically generated from VICON data using
   VICON BodyBuilder and BodyLanguage model FoxedUp or BRILLIANT.MOD
:root
   order TX TY TZ RX RY RZ
   axis XYZ
   position 0 0 0  
   orientation 0 0 0 
:bonedata
  begin
     id 1 
     name lhipjoint
     direction 0.662698 -0.695252 0.27831 
     length 2.53073 
     axis 0 0 0  XYZ
  end
  begin
     id 2 
     name lfemur
     direction 0.34202 -0.939693 0  
     length 7.16147  
     axis 0 0 20  XYZ
    dof rx ry rz
    limits (-160.0 20.0)
           (-70.0 70.0)
           (-60.0 70.0)
  end
  begin
     id 3 
     name ltibia
     direction 0.34202 -0.939693 0   
     length 7.63967   
     axis 0 0 20   XYZ
    dof rx
    limits (-10.0 170.0)
  end
  begin
     id 4 
     name lfoot
     direction 0.0938457 -0.257721 0.961651   
     length 1.89793   
     axis -90 7.62852e-016 20   XYZ
    dof rx rz
    limits (-45.0 90.0)
           (-70.0 20.0)
  end
  begin
     id 5 
     name ltoes
     direction -0.00116841 -0.0030592 0.999995   
     length 0.955649   
     axis -90 7.62852e-016 20   XYZ
    dof rx
    limits (-90.0 20.0)
  end
  begin
     id 6 
     name rhipjoint
     direction -0.649445 -0.705948 0.282592   
     length 2.49238  
     axis 0 0 0  XYZ 
  end
  begin
     id 7 
     name rfemur
     direction -0.34202 -0.939693 0   
     length 6.90728   
     axis 0 0 -20   XYZ
    dof rx ry rz
    limits (-160.0 20.0)
           (-70.0 70.0)
           (-70.0 60.0)
  end
  begin
     id 8 
     name rtibia
     direction -0.34202 -0.939693 0   
     length 7.72868   
     axis 0 0 -20   XYZ
    dof rx
    limits (-10.0 170.0)
 end
 begin
     id 9 
     name rfoot
     direction -0.0920068 -0.252865 0.963117   
     length 1.97476  
     axis -90 -7.62852e-016 -20   XYZ
    dof rx rz
    limits (-45.0 90.0)
           (-20.0 70.0)
  end
  begin
     id 10 
     name rtoes
     direction 0.000391322 0.00230649 0.999997   
     length 0.992641   
     axis -90 -7.62852e-016 -20   XYZ
    dof rx
    limits (-90.0 20.0)
  end
  begin
     id 11 
     name lowerback
     direction -0.00875327 0.998321 -0.0572635   
     length 2.20024   
     axis 0 0 0   XYZ
    dof rx ry rz
    limits (-20.0 45.0)
           (-30.0 30.0)
           (-30.0 30.0)
  end
  begin
     id 12 
     name upperback
     direction 0.00753931 0.999972 -0.000360425   
     length 2.20538   
     axis 0 0 0   XYZ
    dof rx ry rz
    limits (-20.0 45.0)
           (-30.0 30.0)
           (-30.0 30.0)
  end
  begin
     id 13 
     name thorax
     direction 0.0117767 0.999601 0.0256663   
     length 2.21508   
     axis 0 0 0   XYZ
    dof rx ry rz
    limits (-20.0 45.0)
           (-30.0 30.0)
           (-30.0 30.0)
  end
  begin
     id 14 
     name lowerneck
     direction 0.060228 0.994909 0.0807986   
     length 1.7607   
     axis 0 0 0   XYZ
    dof rx ry rz
    limits (-20.0 45.0)
           (-30.0 30.0)
           (-30.0 30.0)
  end
  begin
     id 15 
     name upperneck
     direction -0.0563647 0.959594 -0.275685   
     length 1.75612   
     axis 0 0 0   XYZ
    dof rx ry rz
    limits (-20.0 45.0)
           (-30.0 30.0)
           (-30.0 30.0)
  end
  begin
     id 16
     name head
     direction -0.0161544 0.99458 -0.102714  
     length 1.79288  
     axis 0 0 0   XYZ
    dof rx ry rz
    limits (-20.0 45.0)
           (-30.0 30.0)
           (-30.0 30.0)
  end
  begin
     id 17 
     name lclavicle
     direction 0.93913 0.332189 -0.087669  
     length 3.52087  
     axis 0 0 0   XYZ
    dof ry rz
    limits (-20.0 10.0)
           (0.0 20.0)
  end
  begin
     id 18 
     name lhumerus
     direction 1 -4.48974e-011 -2.70836e-027   
     length 5.35289   
     axis -180 -30 -90   XYZ
    dof rx ry rz
    limits (-60.0 90.0)
           (-90.0 90.0)
           (-90.0 90.0)
  end
  begin
     id 19
     name lradius
     direction 1 -4.48961e-011 -9.76021e-027   
     length 3.27727   
     axis -180 -30 -90   XYZ
    dof rx
    limits (-10.0 170.0)
  end
  begin
     id 20
     name lwrist
     direction 1 -4.49103e-011 -2.23668e-026   
     length 1.63864   
     axis 1.44924e-014 90 90   XYZ
    dof ry
    limits (-180.0 0.0)
 end
  begin
     id 21 
     name lhand
     direction 1 3.0697e-005 0.000161777   
     length 0.54443   
     axis 2.85318e-014 90 90   XYZ
    dof rx rz
    limits (-90.0 90.0)
           (-45.0 45.0)
  end
  begin
     id 22 
     name lfingers
     direction 1 -4.49027e-011 -8.9447e-026   
     length 0.438912   
     axis 5.70628e-014 90 90   XYZ
    dof rx
    limits (0.0 90.0)
  end
  begin
     id 23
     name lthumb
     direction 0.707058 2.6516e-005 0.707156   
     length 0.630274   
     axis -90 45 -3.53137e-014   XYZ
    dof rx rz
    limits (-45.0 45.0)
           (-45.0 45.0)
  end
  begin
     id 24 
     name rclavicle
     direction -0.95274 0.284984 -0.105215   
     length 3.43401  
     axis 0 0 0   XYZ 
    dof ry rz
    limits (-10.0 20.0)
           (-20.0 0.0)
  end
  begin
     id 25 
     name rhumerus
     direction -0.999999 -0.000575019 -0.00106829  
     length 5.52077   
     axis -180 30 90   XYZ
    dof rx ry rz
    limits (-90.0 60.0)
           (-90.0 90.0)
           (-90.0 90.0)
  end
  begin
     id 26 
     name rradius
     direction -1 -4.4879e-011 -6.35415e-027   
     length 3.32364   
     axis -180 30 90   XYZ
    dof rx
    limits (-10.0 170.0)
  end
  begin
     id 27 
     name rwrist
     direction -1 -4.49048e-011 -9.98542e-027   
     length 1.66182   
     axis 6.32482e-015 -90 -90   XYZ
    dof ry
    limits (-180.0 0.0)
  end
  begin
     id 28
     name rhand
     direction -1 -4.48978e-011 -1.99771e-026   
     length 0.732235   
     axis 1.27479e-014 -90 -90   XYZ
    dof rx rz
    limits (-90.0 90.0)
           (-45.0 45.0)
  end
  begin
     id 29
     name rfingers
     direction -1 -4.49144e-011 -3.99245e-026   
     length 0.590347   
     axis 2.5496e-014 -90 -90   XYZ
    dof rx
    limits (0.0 90.0)
  end
  begin
     id 30
     name rthumb
     direction -0.707107 -6.35121e-011 0.707107   
     length 0.847624   
     axis -90 -45 -2.82974e-014   XYZ
    dof rx rz
    limits (-45.0 45.0)
           (-45.0 45.0)
  end
:hierarchy
  begin
    root lhipjoint rhipjoint lowerback
    lhipjoint lfemur
    lfemur ltibia
    ltibia lfoot
    lfoot ltoes
    rhipjoint rfemur
    rfemur rtibia
    rtibia rfoot
    rfoot rtoes
    lowerback upperback
    upperback thorax
    thorax lowerneck lclavicle rclavicle
    lowerneck upperneck
    upperneck head
    lclavicle lhumerus
    lhumerus lradius
    lradius lwrist
    lwrist lhand lthumb
    lhand lfingers
    rclavicle rhumerus
    rhumerus rradius
    rradius rwrist
    rwrist rhand rthumb
    rhand rfingers
  end

#!OML:ASF G:\Work\Work\Patient Classification 1\Elijah\terrain1\Elijah.ASF
:FULLY-SPECIFIED
:DEGREES
999
root 10.4096 23.2019 1.4693 162.116 -72.7722 204.976
lowerback 4.05141 0.242617 1.71348
upperback 1.43804 0.368734 1.11431
thorax -0.791459 0.170722 0.164447
lowerneck -7.90168 9.64488 14.163
upperneck 29.1031 13.8083 -13.1035
head 13.0094 5.90234 -5.59022
rclavicle -6.95746e-015 -1.59028e-015
rhumerus -40.2188 12.6983 -87.6442
rradius 43.2561
rwrist -8.75722
rhand -15.2117 22.9165
rfingers 7.12502
rthumb 10.9605 -6.77742
lclavicle -6.95746e-015 -1.59028e-015
lhumerus -48.299 11.1939 74.3284
lradius 42.8228
lwrist 6.77617
lhand -17.8723 25.0604
lfingers 7.12502
lthumb 8.39354 54.8736
rfemur -15.4761 -1.11029 32.553
rtibia 41.7853
rfoot -24.4858 -6.50987
rtoes -5.6258
lfemur -35.7924 -9.1256 -4.34117
ltibia 36.4495
lfoot 7.3455 -5.26578
ltoes -13.8272
1000
root 10.3092 23.1606 1.4694 163.901 -72.447 203.005
lowerback 4.08823 0.248613 1.19217
upperback 1.43741 0.358137 0.786082
thorax -0.814254 0.167067 0.120421
lowerneck -7.92048 9.59401 14.8123
upperneck 28.956 13.6341 -13.2178
head 12.9902 5.88922 -5.76915
rclavicle -3.97569e-014 9.54166e-015
rhumerus -40.27 11.618 -87.2197
rradius 43.1578
rwrist -6.65834
rhand -14.3209 23.4404
rfingers 7.12502
rthumb 11.8197 -6.20609
lclavicle -3.97569e-014 9.54166e-015
lhumerus -48.8152 8.36042 74.4089
lradius 43.3245
lwrist 9.60783
lhand -18.1443 25.3094
lfingers 7.12502
lthumb 8.13106 55.133
rfemur -16.3248 -1.39476 31.9876
rtibia 44.2889
rfoot -24.5001 -6.51894
rtoes -7.71083
lfemur -34.9877 -9.68107 -4.59188
ltibia 35.8452
lfoot 8.58539 -4.63501
ltoes -9.90385
1001
root 10.2191 23.113 1.45663 165.777 -72.001 201.042
lowerback 4.11658 0.297842 0.411383
upperback 1.39389 0.394686 0.577725
thorax -0.878613 0.185996 0.342573
lowerneck -7.74497 9.6094 15.107
upperneck 28.6345 13.5877 -13.1674
head 12.832 5.92222 -5.79552
rclavicle 1.53064e-014 -1.82882e-014
rhumerus -40.5134 11.2255 -87.2162
rradius 43.2856
rwrist -6.87803
rhand -15.0742 23.309
rfingers 7.12502
rthumb 11.0931 -6.3778
lclavicle 1.53064e-014 -1.82882e-014
lhumerus -48.7623 9.10214 74.1397
lradius 42.6382
lwrist 9.24031
lhand -17.6175 24.6399
lfingers 7.12502
lthumb 8.6395 54.4432
rfemur -17.3723 -1.68115 31.4646
rtibia 46.8434
rfoot -24.3325 -6.39985
rtoes -8.96108
lfemur -34.3157 -9.95477 -4.88279
ltibia 35.3786
lfoot 9.73696 -4.30381
ltoes -7.34522
1002
root 10.1261 23.0531 1.45146 167.506 -71.5535 199.159
lowerback 4.21144 0.325013 -0.377661
upperback 1.36364 0.398395 0.363976
thorax -0.966579 0.188429 0.565203
lowerneck -7.45298 9.65386 15.4895
upperneck 28.2562 13.5851 -13.1411
head 12.6458 5.98615 -5.84074
rclavicle 2.18663e-014 -3.97569e-015
rhumerus -40.8064 10.959 -87.2807
rradius 43.506
rwrist -7.45981
rhand -15.7189 23.1725
rfingers 7.12502
rthumb 10.4713 -6.54669
lclavicle 2.18663e-014 -3.97569e-015
lhumerus -48.8739 9.16678 73.9151
lradius 42.165
lwrist 9.65582
lhand -16.7069 23.8699
lfingers 7.12502
lthumb 9.51813 53.6349
rfemur -18.3225 -1.88869 30.9328
rtibia 49.406
rfoot -24.0522 -6.5447
rtoes -9.98295
lfemur -33.6079 -10.041 -5.39668
ltibia 35.0311
lfoot 10.5845 -4.45262
ltoes -8.4287
1003
root 10.0441 22.9763 1.53097 169.253 -70.8649 197.223
lowerback 4.74534 0.279856 -0.321208
upperback 1.30637 0.33361 0.0476641
thorax -1.3204 0.156566 0.209962
lowerneck -7.36057 9.77449 15.8481
upperneck 28.0396 13.7208 -13.2451
head 12.6057 6.08137 -5.91233
rclavicle 4.57205e-014 2.38542e-014
rhumerus -40.8957 10.8029 -87.1295
rradius 43.7551
rwrist -8.00219
rhand -15.837 23.1331
rfingers 7.12502
rthumb 10.3574 -6.59178
lclavicle 4.57205e-014 2.38542e-014
lhumerus -48.9318 9.36487 73.7605
lradius 41.6539
lwrist 9.78922
lhand -16.0002 23.4707
lfingers 7.12502
lthumb 10.2 53.2034
rfemur -19.4388 -2.29593 30.0299
rtibia 52.0249
rfoot -23.5962 -6.14178
rtoes -11.4364
lfemur -32.8678 -10.4851 -6.00526
ltibia 34.7939
lfoot 10.3491 -4.11645
ltoes -7.48927
